<svg width="384" height="342" xmlns="http://www.w3.org/2000/svg" xmlns:xlink="http://www.w3.org/1999/xlink" xml:space="preserve" overflow="hidden"><defs><clipPath id="clip0"><rect x="498" y="144" width="384" height="342"/></clipPath></defs><g clip-path="url(#clip0)" transform="translate(-498 -144)"><text fill="#BBBDBF" font-family="Arial,Arial_MSFontService,sans-serif" font-weight="400" font-size="12" transform="matrix(0.599242 0 0 0.598079 606.397 150)">0</text><text fill="#BBBDBF" font-family="Arial,Arial_MSFontService,sans-serif" font-weight="400" font-size="12" transform="matrix(0.599242 0 0 0.598079 627.598 150)">20</text><text fill="#BBBDBF" font-family="Arial,Arial_MSFontService,sans-serif" font-weight="400" font-size="12" transform="matrix(0.599242 0 0 0.598079 647.924 150)">40</text><text fill="#BBBDBF" font-family="Arial,Arial_MSFontService,sans-serif" font-weight="400" font-size="12" transform="matrix(0.599242 0 0 0.598079 668.281 150)">60</text><text fill="#BBBDBF" font-family="Arial,Arial_MSFontService,sans-serif" font-weight="400" font-size="12" transform="matrix(0.599242 0 0 0.598079 689.434 150)">80</text><text fill="#BBBDBF" font-family="Arial,Arial_MSFontService,sans-serif" font-weight="400" font-size="12" transform="matrix(0.599242 0 0 0.598079 709.263 150)">100</text><text fill="#BBBDBF" font-family="Arial,Arial_MSFontService,sans-serif" font-weight="400" font-size="12" transform="matrix(0.599242 0 0 0.598079 729.972 150)">120</text><text fill="#BBBDBF" font-family="Arial,Arial_MSFontService,sans-serif" font-weight="400" font-size="12" transform="matrix(0.599242 0 0 0.598079 749.508 150)">140</text><text fill="#BBBDBF" font-family="Arial,Arial_MSFontService,sans-serif" font-weight="400" font-size="12" transform="matrix(0.599242 0 0 0.598079 771.128 150)">160</text><text fill="#BBBDBF" font-family="Arial,Arial_MSFontService,sans-serif" font-weight="400" font-size="12" transform="matrix(0.599242 0 0 0.598079 791.598 150)">180</text><text fill="#BBBDBF" font-family="Arial,Arial_MSFontService,sans-serif" font-weight="400" font-size="12" transform="matrix(0.599242 0 0 0.598079 810.606 150)">200</text><text fill="#BBBDBF" font-family="Arial,Arial_MSFontService,sans-serif" font-weight="400" font-size="12" transform="matrix(0.599242 0 0 0.598079 648.733 192)">0</text><text fill="#BBBDBF" font-family="Arial,Arial_MSFontService,sans-serif" font-weight="400" font-size="12" transform="matrix(0.599242 0 0 0.598079 669.94 192)">20</text><text fill="#BBBDBF" font-family="Arial,Arial_MSFontService,sans-serif" font-weight="400" font-size="12" transform="matrix(0.599242 0 0 0.598079 690.267 192)">40</text><text fill="#BBBDBF" font-family="Arial,Arial_MSFontService,sans-serif" font-weight="400" font-size="12" transform="matrix(0.599242 0 0 0.598079 710.623 192)">60</text><text fill="#BBBDBF" font-family="Arial,Arial_MSFontService,sans-serif" font-weight="400" font-size="12" transform="matrix(0.599242 0 0 0.598079 731.776 192)">80</text><text fill="#BBBDBF" font-family="Arial,Arial_MSFontService,sans-serif" font-weight="400" font-size="12" transform="matrix(0.599242 0 0 0.598079 751.605 192)">100</text><text fill="#BBBDBF" font-family="Arial,Arial_MSFontService,sans-serif" font-weight="400" font-size="12" transform="matrix(0.599242 0 0 0.598079 772.309 192)">120</text><text fill="#BBBDBF" font-family="Arial,Arial_MSFontService,sans-serif" font-weight="400" font-size="12" transform="matrix(0.599242 0 0 0.598079 791.85 192)">140</text><text fill="#BBBDBF" font-family="Arial,Arial_MSFontService,sans-serif" font-weight="400" font-size="12" transform="matrix(0.599242 0 0 0.598079 813.471 192)">160</text><text fill="#BBBDBF" font-family="Arial,Arial_MSFontService,sans-serif" font-weight="400" font-size="12" transform="matrix(0.599242 0 0 0.598079 833.941 192)">180</text><text fill="#BBBDBF" font-family="Arial,Arial_MSFontService,sans-serif" font-weight="400" font-size="12" transform="matrix(0.599242 0 0 0.598079 852.949 192)">200</text><path d="M113.725 9.02502 113.725 214.728" stroke="#BBBDBF" stroke-width="0.29904" stroke-miterlimit="10" fill="none" transform="matrix(1.00194 0 0 1 498 144.063)"/><path d="M134.317 9.02502 134.317 214.728" stroke="#BBBDBF" stroke-width="0.29904" stroke-miterlimit="10" fill="none" transform="matrix(1.00194 0 0 1 498 144.063)"/><path d="M154.915 9.02502 154.915 214.728" stroke="#BBBDBF" stroke-width="0.29904" stroke-miterlimit="10" fill="none" transform="matrix(1.00194 0 0 1 498 144.063)"/><path d="M175.506 9.02502 175.506 214.728" stroke="#BBBDBF" stroke-width="0.29904" stroke-miterlimit="10" fill="none" transform="matrix(1.00194 0 0 1 498 144.063)"/><path d="M196.104 9.02502 196.104 214.728" stroke="#BBBDBF" stroke-width="0.29904" stroke-miterlimit="10" fill="none" transform="matrix(1.00194 0 0 1 498 144.063)"/><path d="M216.696 9.02502 216.696 214.728" stroke="#BBBDBF" stroke-width="0.29904" stroke-miterlimit="10" fill="none" transform="matrix(1.00194 0 0 1 498 144.063)"/><path d="M237.294 9.02502 237.294 214.728" stroke="#BBBDBF" stroke-width="0.29904" stroke-miterlimit="10" fill="none" transform="matrix(1.00194 0 0 1 498 144.063)"/><path d="M257.886 9.02502 257.886 214.728" stroke="#BBBDBF" stroke-width="0.29904" stroke-miterlimit="10" fill="none" transform="matrix(1.00194 0 0 1 498 144.063)"/><path d="M278.478 9.02502 278.478 214.728" stroke="#BBBDBF" stroke-width="0.29904" stroke-miterlimit="10" fill="none" transform="matrix(1.00194 0 0 1 498 144.063)"/><path d="M299.076 9.02502 299.076 214.728" stroke="#BBBDBF" stroke-width="0.29904" stroke-miterlimit="10" fill="none" transform="matrix(1.00194 0 0 1 498 144.063)"/><path d="M319.667 9.02502 319.667 214.728" stroke="#BBBDBF" stroke-width="0.29904" stroke-miterlimit="10" fill="none" transform="matrix(1.00194 0 0 1 498 144.063)"/><path d="M319.667 8.89942 113.844 8.89942" stroke="#BBBDBF" stroke-width="0.29904" stroke-miterlimit="10" fill="none" transform="matrix(1.00194 0 0 1 498 144.063)"/><path d="M319.667 29.4973 113.844 29.4973" stroke="#BBBDBF" stroke-width="0.29904" stroke-miterlimit="10" fill="none" transform="matrix(1.00194 0 0 1 498 144.063)"/><path d="M319.667 50.0891 113.844 50.0891" stroke="#BBBDBF" stroke-width="0.29904" stroke-miterlimit="10" fill="none" transform="matrix(1.00194 0 0 1 498 144.063)"/><path d="M319.667 70.687 113.844 70.687" stroke="#BBBDBF" stroke-width="0.29904" stroke-miterlimit="10" fill="none" transform="matrix(1.00194 0 0 1 498 144.063)"/><path d="M319.667 91.2789 113.844 91.2789" stroke="#BBBDBF" stroke-width="0.29904" stroke-miterlimit="10" fill="none" transform="matrix(1.00194 0 0 1 498 144.063)"/><path d="M319.667 111.877 113.844 111.877" stroke="#BBBDBF" stroke-width="0.29904" stroke-miterlimit="10" fill="none" transform="matrix(1.00194 0 0 1 498 144.063)"/><path d="M319.667 132.469 113.844 132.469" stroke="#BBBDBF" stroke-width="0.29904" stroke-miterlimit="10" fill="none" transform="matrix(1.00194 0 0 1 498 144.063)"/><path d="M319.667 153.066 113.844 153.066" stroke="#BBBDBF" stroke-width="0.29904" stroke-miterlimit="10" fill="none" transform="matrix(1.00194 0 0 1 498 144.063)"/><path d="M319.667 173.658 113.844 173.658" stroke="#BBBDBF" stroke-width="0.29904" stroke-miterlimit="10" fill="none" transform="matrix(1.00194 0 0 1 498 144.063)"/><path d="M319.667 194.25 113.844 194.25" stroke="#BBBDBF" stroke-width="0.29904" stroke-miterlimit="10" fill="none" transform="matrix(1.00194 0 0 1 498 144.063)"/><path d="M319.667 214.848 113.844 214.848" stroke="#BBBDBF" stroke-width="0.29904" stroke-miterlimit="10" fill="none" transform="matrix(1.00194 0 0 1 498 144.063)"/><text fill="#FF0000" font-family="Arial,Arial_MSFontService,sans-serif" font-weight="400" font-size="12" transform="matrix(0.599242 0 0 0.598079 596.18 169)">A</text><text fill="#FF0000" font-family="Arial,Arial_MSFontService,sans-serif" font-weight="400" font-size="12" transform="matrix(0.599242 0 0 0.598079 864.634 218)">B</text><text fill="#FF0000" font-family="Arial,Arial_MSFontService,sans-serif" font-weight="400" font-size="12" transform="matrix(0.599242 0 0 0.598079 659.597 254)">C</text><text fill="#BBBDBF" font-family="Arial,Arial_MSFontService,sans-serif" font-weight="400" font-size="12" transform="matrix(0.599242 0 0 0.598079 600.944 176)">20</text><path d="M113.725 8.89344 319.673 8.89344 319.673 50.2447 113.725 50.2447Z" stroke="#BBBDBF" stroke-width="0.29904" stroke-miterlimit="10" fill="none" transform="matrix(1.00194 0 0 1 498 144.063)"/><path d="M155.345 50.2447 155.345 255.948" stroke="#BBBDBF" stroke-width="0.29904" stroke-miterlimit="10" fill="none" transform="matrix(1.00194 0 0 1 498 144.063)"/><path d="M175.937 50.2447 175.937 255.948" stroke="#BBBDBF" stroke-width="0.29904" stroke-miterlimit="10" fill="none" transform="matrix(1.00194 0 0 1 498 144.063)"/><path d="M196.535 50.2447 196.535 255.948" stroke="#BBBDBF" stroke-width="0.29904" stroke-miterlimit="10" fill="none" transform="matrix(1.00194 0 0 1 498 144.063)"/><path d="M217.127 50.2447 217.127 255.948" stroke="#BBBDBF" stroke-width="0.29904" stroke-miterlimit="10" fill="none" transform="matrix(1.00194 0 0 1 498 144.063)"/><path d="M237.725 50.2447 237.725 255.948" stroke="#BBBDBF" stroke-width="0.29904" stroke-miterlimit="10" fill="none" transform="matrix(1.00194 0 0 1 498 144.063)"/><path d="M258.316 50.2447 258.316 255.948" stroke="#BBBDBF" stroke-width="0.29904" stroke-miterlimit="10" fill="none" transform="matrix(1.00194 0 0 1 498 144.063)"/><path d="M278.914 50.2447 278.914 255.948" stroke="#BBBDBF" stroke-width="0.29904" stroke-miterlimit="10" fill="none" transform="matrix(1.00194 0 0 1 498 144.063)"/><path d="M299.506 50.2447 299.506 255.948" stroke="#BBBDBF" stroke-width="0.29904" stroke-miterlimit="10" fill="none" transform="matrix(1.00194 0 0 1 498 144.063)"/><path d="M320.104 50.2447 320.104 255.948" stroke="#BBBDBF" stroke-width="0.29904" stroke-miterlimit="10" fill="none" transform="matrix(1.00194 0 0 1 498 144.063)"/><path d="M340.696 50.2447 340.696 255.948" stroke="#BBBDBF" stroke-width="0.29904" stroke-miterlimit="10" fill="none" transform="matrix(1.00194 0 0 1 498 144.063)"/><path d="M361.294 50.2447 361.294 255.948" stroke="#BBBDBF" stroke-width="0.29904" stroke-miterlimit="10" fill="none" transform="matrix(1.00194 0 0 1 498 144.063)"/><path d="M361.294 50.125 155.465 50.125" stroke="#BBBDBF" stroke-width="0.29904" stroke-miterlimit="10" fill="none" transform="matrix(1.00194 0 0 1 498 144.063)"/><path d="M361.294 70.7169 155.465 70.7169" stroke="#BBBDBF" stroke-width="0.29904" stroke-miterlimit="10" fill="none" transform="matrix(1.00194 0 0 1 498 144.063)"/><path d="M361.294 91.3148 155.465 91.3148" stroke="#BBBDBF" stroke-width="0.29904" stroke-miterlimit="10" fill="none" transform="matrix(1.00194 0 0 1 498 144.063)"/><path d="M361.294 111.907 155.465 111.907" stroke="#BBBDBF" stroke-width="0.29904" stroke-miterlimit="10" fill="none" transform="matrix(1.00194 0 0 1 498 144.063)"/><path d="M361.294 132.504 155.465 132.504" stroke="#BBBDBF" stroke-width="0.29904" stroke-miterlimit="10" fill="none" transform="matrix(1.00194 0 0 1 498 144.063)"/><path d="M361.294 153.096 155.465 153.096" stroke="#BBBDBF" stroke-width="0.29904" stroke-miterlimit="10" fill="none" transform="matrix(1.00194 0 0 1 498 144.063)"/><path d="M361.294 173.694 155.465 173.694" stroke="#BBBDBF" stroke-width="0.29904" stroke-miterlimit="10" fill="none" transform="matrix(1.00194 0 0 1 498 144.063)"/><path d="M361.294 194.286 155.465 194.286" stroke="#BBBDBF" stroke-width="0.29904" stroke-miterlimit="10" fill="none" transform="matrix(1.00194 0 0 1 498 144.063)"/><path d="M361.294 214.884 155.465 214.884" stroke="#BBBDBF" stroke-width="0.29904" stroke-miterlimit="10" fill="none" transform="matrix(1.00194 0 0 1 498 144.063)"/><path d="M361.294 235.476 155.465 235.476" stroke="#BBBDBF" stroke-width="0.29904" stroke-miterlimit="10" fill="none" transform="matrix(1.00194 0 0 1 498 144.063)"/><path d="M361.294 256.068 155.465 256.068" stroke="#BBBDBF" stroke-width="0.29904" stroke-miterlimit="10" fill="none" transform="matrix(1.00194 0 0 1 498 144.063)"/><text fill="#BBBDBF" font-family="Arial,Arial_MSFontService,sans-serif" font-weight="400" font-size="12" transform="matrix(0.599242 0 0 0.598079 642.645 217)">20</text><text fill="#BBBDBF" font-family="Arial,Arial_MSFontService,sans-serif" font-weight="400" font-size="12" transform="matrix(0.599242 0 0 0.598079 642.471 238)">40</text><text fill="#BBBDBF" font-family="Arial,Arial_MSFontService,sans-serif" font-weight="400" font-size="12" transform="matrix(0.599242 0 0 0.598079 642.645 258)">60</text><text fill="#BBBDBF" font-family="Arial,Arial_MSFontService,sans-serif" font-weight="400" font-size="12" transform="matrix(0.599242 0 0 0.598079 642.471 279)">80</text><text fill="#BBBDBF" font-family="Arial,Arial_MSFontService,sans-serif" font-weight="400" font-size="12" transform="matrix(0.599242 0 0 0.598079 639.577 300)">100</text><text fill="#BBBDBF" font-family="Arial,Arial_MSFontService,sans-serif" font-weight="400" font-size="12" transform="matrix(0.599242 0 0 0.598079 639.721 320)">120</text><text fill="#BBBDBF" font-family="Arial,Arial_MSFontService,sans-serif" font-weight="400" font-size="12" transform="matrix(0.599242 0 0 0.598079 639.577 341)">140</text><text fill="#BBBDBF" font-family="Arial,Arial_MSFontService,sans-serif" font-weight="400" font-size="12" transform="matrix(0.599242 0 0 0.598079 639.721 362)">160</text><text fill="#BBBDBF" font-family="Arial,Arial_MSFontService,sans-serif" font-weight="400" font-size="12" transform="matrix(0.599242 0 0 0.598079 639.577 382)">180</text><text fill="#BBBDBF" font-family="Arial,Arial_MSFontService,sans-serif" font-weight="400" font-size="12" transform="matrix(0.599242 0 0 0.598079 638.091 403)">200</text><path d="M155.345 50.1131 361.294 50.1131 361.294 256.068 155.345 256.068Z" stroke="#BBBDBF" stroke-width="0.29904" stroke-miterlimit="10" fill="none" transform="matrix(1.00194 0 0 1 498 144.063)"/><text fill="#BBBDBF" font-family="Arial,Arial_MSFontService,sans-serif" font-weight="400" font-size="12" transform="matrix(0.599242 0 0 0.598079 600.764 197)">40</text><text fill="#BBBDBF" font-family="Arial,Arial_MSFontService,sans-serif" font-weight="400" font-size="12" transform="matrix(0.599242 0 0 0.598079 600.944 217)">60</text><text fill="#BBBDBF" font-family="Arial,Arial_MSFontService,sans-serif" font-weight="400" font-size="12" transform="matrix(0.599242 0 0 0.598079 600.764 238)">80</text><text fill="#BBBDBF" font-family="Arial,Arial_MSFontService,sans-serif" font-weight="400" font-size="12" transform="matrix(0.599242 0 0 0.598079 597.876 258)">100</text><text fill="#BBBDBF" font-family="Arial,Arial_MSFontService,sans-serif" font-weight="400" font-size="12" transform="matrix(0.599242 0 0 0.598079 598.019 279)">120</text><text fill="#BBBDBF" font-family="Arial,Arial_MSFontService,sans-serif" font-weight="400" font-size="12" transform="matrix(0.599242 0 0 0.598079 597.876 300)">140</text><text fill="#BBBDBF" font-family="Arial,Arial_MSFontService,sans-serif" font-weight="400" font-size="12" transform="matrix(0.599242 0 0 0.598079 598.019 320)">160</text><text fill="#BBBDBF" font-family="Arial,Arial_MSFontService,sans-serif" font-weight="400" font-size="12" transform="matrix(0.599242 0 0 0.598079 597.876 341)">180</text><text fill="#BBBDBF" font-family="Arial,Arial_MSFontService,sans-serif" font-weight="400" font-size="12" transform="matrix(0.599242 0 0 0.598079 596.389 362)">200</text><path d="M155.351 50.1729 196.583 50.1729 196.583 91.4045 155.351 91.4045Z" fill="#BBBDBF" transform="matrix(1.00194 0 0 1 498 144.063)"/><path d="M361.294 50.2387 357.544 75.1367C352.876 106.188 341.036 135.725 322.963 161.404L307.532 183.299" stroke="#FF0000" stroke-width="0.44856" stroke-miterlimit="10" fill="none" transform="matrix(1.00194 0 0 1 498 144.063)"/><path d="M308.077 178.814 308.723 178.993 307.574 183.246 311.193 180.728 311.575 181.278 306.438 184.854 308.077 178.814Z" fill="#FF0000" transform="matrix(1.00194 0 0 1 498 144.063)"/><path d="M155.291 50.2805 14.1326 197.33" stroke="#000000" stroke-width="0.29904" stroke-miterlimit="10" fill="none" transform="matrix(1.00194 0 0 1 498 144.063)"/><path d="M169.711 64.7062 28.5583 211.75" stroke="#000000" stroke-width="0.29904" stroke-miterlimit="10" fill="none" transform="matrix(1.00194 0 0 1 498 144.063)"/><path d="M184.137 79.1319 42.978 226.176" stroke="#000000" stroke-width="0.29904" stroke-miterlimit="10" fill="none" transform="matrix(1.00194 0 0 1 498 144.063)"/><path d="M198.562 93.5576 57.4037 240.601" stroke="#000000" stroke-width="0.29904" stroke-miterlimit="10" fill="none" transform="matrix(1.00194 0 0 1 498 144.063)"/><path d="M212.988 107.977 71.8293 255.027" stroke="#000000" stroke-width="0.29904" stroke-miterlimit="10" fill="none" transform="matrix(1.00194 0 0 1 498 144.063)"/><path d="M227.408 122.403 86.255 269.453" stroke="#000000" stroke-width="0.29904" stroke-miterlimit="10" fill="none" transform="matrix(1.00194 0 0 1 498 144.063)"/><path d="M241.833 136.829 100.675 283.872" stroke="#000000" stroke-width="0.29904" stroke-miterlimit="10" fill="none" transform="matrix(1.00194 0 0 1 498 144.063)"/><path d="M256.259 151.254 115.1 298.298" stroke="#000000" stroke-width="0.29904" stroke-miterlimit="10" fill="none" transform="matrix(1.00194 0 0 1 498 144.063)"/><path d="M270.679 165.674 129.526 312.724" stroke="#000000" stroke-width="0.29904" stroke-miterlimit="10" fill="none" transform="matrix(1.00194 0 0 1 498 144.063)"/><path d="M285.104 180.1 143.946 327.149" stroke="#000000" stroke-width="0.29904" stroke-miterlimit="10" fill="none" transform="matrix(1.00194 0 0 1 498 144.063)"/><path d="M299.53 194.525 158.371 341.569" stroke="#000000" stroke-width="0.29904" stroke-miterlimit="10" fill="none" transform="matrix(1.00194 0 0 1 498 144.063)"/><path d="M299.614 194.436 155.459 50.2805" stroke="#000000" stroke-width="0.29904" stroke-miterlimit="10" fill="none" transform="matrix(1.00194 0 0 1 498 144.063)"/><path d="M285.481 209.16 141.326 64.9993" stroke="#000000" stroke-width="0.29904" stroke-miterlimit="10" fill="none" transform="matrix(1.00194 0 0 1 498 144.063)"/><path d="M271.349 223.885 127.194 79.724" stroke="#000000" stroke-width="0.29904" stroke-miterlimit="10" fill="none" transform="matrix(1.00194 0 0 1 498 144.063)"/><path d="M257.216 238.604 113.061 94.4487" stroke="#000000" stroke-width="0.29904" stroke-miterlimit="10" fill="none" transform="matrix(1.00194 0 0 1 498 144.063)"/><path d="M243.083 253.328 98.9283 109.167" stroke="#000000" stroke-width="0.29904" stroke-miterlimit="10" fill="none" transform="matrix(1.00194 0 0 1 498 144.063)"/><path d="M228.951 268.047 84.7957 123.892" stroke="#000000" stroke-width="0.29904" stroke-miterlimit="10" fill="none" transform="matrix(1.00194 0 0 1 498 144.063)"/><path d="M214.818 282.772 70.6631 138.611" stroke="#000000" stroke-width="0.29904" stroke-miterlimit="10" fill="none" transform="matrix(1.00194 0 0 1 498 144.063)"/><path d="M200.686 297.491 56.5305 153.336" stroke="#000000" stroke-width="0.29904" stroke-miterlimit="10" fill="none" transform="matrix(1.00194 0 0 1 498 144.063)"/><path d="M186.553 312.215 42.3978 168.054" stroke="#000000" stroke-width="0.29904" stroke-miterlimit="10" fill="none" transform="matrix(1.00194 0 0 1 498 144.063)"/><path d="M172.42 326.934 28.2652 182.779" stroke="#000000" stroke-width="0.29904" stroke-miterlimit="10" fill="none" transform="matrix(1.00194 0 0 1 498 144.063)"/><path d="M158.288 341.659 14.1326 197.498" stroke="#000000" stroke-width="0.29904" stroke-miterlimit="10" fill="none" transform="matrix(1.00194 0 0 1 498 144.063)"/><text font-family="Arial,Arial_MSFontService,sans-serif" font-weight="400" font-size="12" transform="matrix(0.425462 0.424636 -0.413477 0.430617 630.115 203)">20</text><text font-family="Arial,Arial_MSFontService,sans-serif" font-weight="400" font-size="12" transform="matrix(0.425462 0.424636 -0.413477 0.430617 615.817 218)">40</text><text font-family="Arial,Arial_MSFontService,sans-serif" font-weight="400" font-size="12" transform="matrix(0.425462 0.424636 -0.413477 0.430617 601.765 233)">60</text><text font-family="Arial,Arial_MSFontService,sans-serif" font-weight="400" font-size="12" transform="matrix(0.425462 0.424636 -0.413477 0.430617 587.467 247)">80</text><text font-family="Arial,Arial_MSFontService,sans-serif" font-weight="400" font-size="12" transform="matrix(0.425462 0.424636 -0.413477 0.430617 571.269 260)">100</text><text font-family="Arial,Arial_MSFontService,sans-serif" font-weight="400" font-size="12" transform="matrix(0.425462 0.424636 -0.413477 0.430617 557.193 275)">120</text><text font-family="Arial,Arial_MSFontService,sans-serif" font-weight="400" font-size="12" transform="matrix(0.425462 0.424636 -0.413477 0.430617 542.919 289)">140</text><text font-family="Arial,Arial_MSFontService,sans-serif" font-weight="400" font-size="12" transform="matrix(0.425462 0.424636 -0.413477 0.430617 528.843 304)">160</text><text font-family="Arial,Arial_MSFontService,sans-serif" font-weight="400" font-size="12" transform="matrix(0.425462 0.424636 -0.413477 0.430617 514.569 319)">180</text><text font-family="Arial,Arial_MSFontService,sans-serif" font-weight="400" font-size="12" transform="matrix(0.425462 0.424636 -0.413477 0.430617 499.354 333)">200</text><path d="M158.288 341.659 14.0489 197.414 155.381 50.1908 299.62 194.436 158.288 341.659Z" stroke="#000000" stroke-width="0.29904" stroke-miterlimit="10" fill="none" transform="matrix(1.00194 0 0 1 498 144.063)"/><path d="M155.889 108.545 127.014 79.6642 155.303 50.1908 184.185 79.0661 155.889 108.545Z" transform="matrix(1.00194 0 0 1 498 144.063)"/><path d="M115.651 11.4173 148.288 39.9756" stroke="#FF0000" stroke-width="0.44856" stroke-miterlimit="10" fill="none" transform="matrix(1.00194 0 0 1 498 144.063)"/><path d="M143.886 38.9709 144.131 38.3429 148.24 39.9338 146.111 36.0702 146.703 35.7472 149.717 41.2316 143.886 38.9709Z" fill="#FF0000" transform="matrix(1.00194 0 0 1 498 144.063)"/><text font-family="Arial,Arial_MSFontService,sans-serif" font-weight="400" font-size="12" transform="matrix(0.423728 0.422906 -0.423728 0.422906 651.076 187)">0</text><text font-family="Arial,Arial_MSFontService,sans-serif" font-weight="400" font-size="12" transform="matrix(0.423728 0.422906 -0.423728 0.422906 666.069 202)">20</text><text font-family="Arial,Arial_MSFontService,sans-serif" font-weight="400" font-size="12" transform="matrix(0.423728 0.422906 -0.423728 0.422906 680.445 216)">40</text><text font-family="Arial,Arial_MSFontService,sans-serif" font-weight="400" font-size="12" transform="matrix(0.423728 0.422906 -0.423728 0.422906 694.905 230)">60</text><text font-family="Arial,Arial_MSFontService,sans-serif" font-weight="400" font-size="12" transform="matrix(0.423728 0.422906 -0.423728 0.422906 709.796 245)">80</text><text font-family="Arial,Arial_MSFontService,sans-serif" font-weight="400" font-size="12" transform="matrix(0.423728 0.422906 -0.423728 0.422906 723.818 259)">100</text><text font-family="Arial,Arial_MSFontService,sans-serif" font-weight="400" font-size="12" transform="matrix(0.423728 0.422906 -0.423728 0.422906 738.458 274)">120</text><text font-family="Arial,Arial_MSFontService,sans-serif" font-weight="400" font-size="12" transform="matrix(0.423728 0.422906 -0.423728 0.422906 752.276 288)">140</text><text font-family="Arial,Arial_MSFontService,sans-serif" font-weight="400" font-size="12" transform="matrix(0.423728 0.422906 -0.423728 0.422906 767.563 303)">160</text><text font-family="Arial,Arial_MSFontService,sans-serif" font-weight="400" font-size="12" transform="matrix(0.423728 0.422906 -0.423728 0.422906 782.035 317)">180</text><text font-family="Arial,Arial_MSFontService,sans-serif" font-weight="400" font-size="12" transform="matrix(0.423728 0.422906 -0.423728 0.422906 795.476 331)">200</text></g></svg>